# xmcd CD database file
#
# Track frame offsets:
#	150
#	18810
#	36807
#	60667
#	79322
#	93973
#	111332
#	126709
#	142780
#	161556
#	177473
#	192582
#	212533
#	227572
#	241690
#	257077
#	273399
#	288080
#	307029
#	325826
#
# Disc length: 4597 seconds
#
# Revision: 3
# Processed by: cddbd v1.5.1PL0 Copyright (c) Steve Scherf et al.
# Submitted via: CDex 1.50
#
DISCID=1911f314
DTITLE=Barry White - All Time Greatest Hits
DYEAR=1994
DGENRE=Soul
TTITLE0=Love's Theme
TTITLE1=I'm Gonna Love You Just A Little More, Baby
TTITLE2=I've Got So Much To Give
TTITLE3=Never, Never Gonna Give You Up
TTITLE4=Honey Please, Can't Ya See
TTITLE5=Can't Get Enough Of Your Love,Babe
TTITLE6=You're The First, The Last, My Everything
TTITLE7=What Am I Gonna Do With You
TTITLE8=I'll Do For You Anything You Want Me To
TTITLE9=Let The Music Play
TTITLE10=You See The Trouble With Me
TTITLE11=Baby,We Better Try To Get It Together
TTITLE12=Don't Make Me Wait Too Long
TTITLE13=I'm Qualified To Satisfy You
TTITLE14=It's Ecstasy When You Lay Down Next To Me
TTITLE15=Playing Your Game, Baby
TTITLE16=Oh, What A Night For Dancing
TTITLE17=Your Sweetness Is My Weakness
TTITLE18=Just The Way You Are
TTITLE19=Satin Soul
EXTD=YEAR: 1994
EXTT0=
EXTT1=
EXTT2=
EXTT3=
EXTT4=
EXTT5=
EXTT6=
EXTT7=
EXTT8=
EXTT9=
EXTT10=
EXTT11=
EXTT12=
EXTT13=
EXTT14=
EXTT15=
EXTT16=
EXTT17=
EXTT18=
EXTT19=
PLAYORDER=
